<?xml version="1.0" encoding="UTF-8"?>
<svg version="1.1" xmlns="http://www.w3.org/2000/svg" width="512" height="512">
<path d="M0 0 C0.72058594 -0.01675781 1.44117188 -0.03351562 2.18359375 -0.05078125 C7.57230812 0.77212587 11.42940647 3.80198626 15.3125 7.4375 C16.17359375 8.23414063 17.0346875 9.03078125 17.921875 9.8515625 C18.79328125 10.66367188 19.6646875 11.47578125 20.5625 12.3125 C22.22608043 13.81592207 23.89270382 15.31598455 25.5625 16.8125 C26.39007813 17.55757812 27.21765625 18.30265625 28.0703125 19.0703125 C29.70989879 20.54542618 31.35049655 22.01941652 32.9921875 23.4921875 C37.5828061 27.61347768 42.14697107 31.76123788 46.6875 35.9375 C50.55617822 39.49503099 54.46584125 42.99539575 58.4375 46.4375 C61.71681143 49.33101009 64.92356712 52.30338359 68.140625 55.265625 C70.91744057 57.81805143 73.71230717 60.34233288 76.5625 62.8125 C80.4933925 66.2192735 84.31446573 69.74252785 88.140625 73.265625 C90.91744057 75.81805143 93.71230717 78.34233288 96.5625 80.8125 C100.4933925 84.2192735 104.31446573 87.74252785 108.140625 91.265625 C110.91744057 93.81805143 113.71230717 96.34233288 116.5625 98.8125 C120.49417214 102.21994919 124.31611244 105.74379673 128.14282227 109.26782227 C130.89723428 111.79990116 133.66992499 114.30285268 136.5 116.75 C140.68282011 120.37394644 144.72521807 124.14505746 148.78271484 127.90771484 C152.29462744 131.15865512 155.85251418 134.34234313 159.47265625 137.47265625 C162.20620559 139.87920156 164.88364006 142.34553196 167.5625 144.8125 C170.86276876 147.85140177 174.17199347 150.874061 177.5625 153.8125 C181.4933925 157.2192735 185.31446573 160.74252785 189.140625 164.265625 C191.91744057 166.81805143 194.71230717 169.34233288 197.5625 171.8125 C201.4933925 175.2192735 205.31446573 178.74252785 209.140625 182.265625 C211.91744057 184.81805143 214.71230717 187.34233288 217.5625 189.8125 C221.4933925 193.2192735 225.31446573 196.74252785 229.140625 200.265625 C231.91744057 202.81805143 234.71230717 205.34233288 237.5625 207.8125 C241.06035655 210.85283101 244.50744402 213.94611897 247.9375 217.0625 C248.72447266 217.77116211 248.72447266 217.77116211 249.52734375 218.49414062 C253.24644639 221.88794317 255.41233306 223.92056796 255.96875 229.078125 C256.43285981 242.45821672 256.43285981 242.45821672 253 246.6875 C246.32942687 253.15922135 238.08801629 252.7164536 229.41015625 252.60546875 C228.15488632 252.60122391 226.89961639 252.59697906 225.60630798 252.59260559 C222.29020663 252.57870628 218.97473948 252.55181502 215.65881348 252.51849365 C212.2667383 252.4876492 208.87459726 252.47406975 205.48242188 252.45898438 C198.84227447 252.42597638 192.2024238 252.37582215 185.5625 252.3125 C185.56618717 253.56263634 185.56987434 254.81277267 185.57367325 256.10079193 C185.66033126 285.78599077 185.72627535 315.47115696 185.76676132 345.15645131 C185.77176406 348.81133235 185.77694136 352.46621311 185.78222656 356.12109375 C185.7832758 356.84870527 185.78432505 357.57631679 185.78540608 358.32597715 C185.80280456 370.10262536 185.83433916 381.87919535 185.87111118 393.65579718 C185.90853615 405.74244357 185.93073913 417.82904903 185.93885398 429.91575098 C185.94384678 436.703526 185.95584101 443.49113801 185.98542023 450.27885437 C186.01257204 456.66786441 186.0209453 463.05662408 186.01493073 469.44568634 C186.01603105 471.79022329 186.02398603 474.13476862 186.0393219 476.47925568 C186.05924548 479.68223757 186.05442981 482.88427621 186.04351807 486.08728027 C186.05516943 487.01336893 186.0668208 487.93945758 186.07882524 488.89360952 C186.01697124 495.61845126 184.58261209 501.25341872 179.74609375 506.15234375 C179.16988281 506.51457031 178.59367187 506.87679688 178 507.25 C177.42121094 507.63027344 176.84242188 508.01054687 176.24609375 508.40234375 C172.71065727 510.31361219 169.78322829 510.43994215 165.84332752 510.44672108 C164.64399989 510.45117892 163.44467226 510.45563676 162.20900136 510.46022969 C160.87133395 510.4601404 159.53366653 510.45995054 158.19599915 510.45967102 C156.78017917 510.46296974 155.36436013 510.46669532 153.9485423 510.4708125 C150.04862244 510.48083973 146.14871797 510.48455045 142.24878705 510.48720181 C138.04618685 510.49110272 133.84359887 510.5006812 129.64100647 510.50941467 C119.48714613 510.52918508 109.33328479 510.539246 99.17941001 510.54814246 C94.39919471 510.5525244 89.61898052 510.55789145 84.8387661 510.56313133 C68.95068371 510.58014415 53.06260201 510.59463871 37.17451191 510.60188007 C33.05066744 510.60379001 28.92682297 510.60571033 24.80297852 510.60766602 C23.77800202 510.60814976 22.75302553 510.6086335 21.69698914 510.6091319 C5.09004344 510.61743363 -11.51683026 510.64277272 -28.12374451 510.67524669 C-45.16898662 510.70830638 -62.21419213 510.72632785 -79.25946647 510.72952431 C-88.83167567 510.73169042 -98.40377989 510.74045372 -107.97595787 510.76598549 C-116.1274858 510.78767759 -124.27888324 510.79575025 -132.43043675 510.78601871 C-136.58942296 510.78146968 -140.74813985 510.7833951 -144.90708923 510.80278015 C-148.71632919 510.82038182 -152.52510276 510.81943878 -156.33434746 510.80388286 C-158.36134741 510.80037647 -160.38835208 510.81655542 -162.41528434 510.83348733 C-170.25584835 510.77799335 -176.43445506 510.26455074 -182.27734375 504.49609375 C-182.63957031 503.91988281 -183.00179687 503.34367187 -183.375 502.75 C-183.75527344 502.17121094 -184.13554687 501.59242188 -184.52734375 500.99609375 C-186.15485983 497.98553825 -186.56226813 495.48559106 -186.56054783 492.13271809 C-186.56253888 491.27679642 -186.56452993 490.42087475 -186.56658131 489.53901607 C-186.56366847 488.59836321 -186.56075563 487.65771035 -186.55775452 486.68855286 C-186.55860894 485.68960281 -186.55946337 484.69065276 -186.56034368 483.66143149 C-186.56199682 480.29876512 -186.55647979 476.93614814 -186.55102539 473.57348633 C-186.55074346 471.16913352 -186.55090137 468.76478062 -186.5514679 466.36042786 C-186.55169595 461.17611522 -186.5488511 455.99181385 -186.54323006 450.80750465 C-186.53510822 443.311834 -186.53249913 435.81616943 -186.53124207 428.32049485 C-186.52905262 416.15970471 -186.52239545 403.99892127 -186.51293945 391.83813477 C-186.50376255 380.0240075 -186.49668308 368.20988206 -186.49243164 356.39575195 C-186.49216892 355.6677132 -186.49190619 354.93967445 -186.49163551 354.18957392 C-186.49033049 350.53727245 -186.48906677 346.88497097 -186.48782361 343.23266947 C-186.47745435 312.92594152 -186.4597647 282.61922169 -186.4375 252.3125 C-187.13383545 252.32138245 -187.8301709 252.33026489 -188.54760742 252.3394165 C-195.13786866 252.41985432 -201.72799116 252.48061159 -208.31863403 252.51974869 C-211.70628958 252.54054671 -215.09353656 252.56871887 -218.48095703 252.61425781 C-222.38324646 252.66294693 -226.28496152 252.68550929 -230.1875 252.703125 C-231.39301514 252.72377014 -232.59853027 252.74441528 -233.84057617 252.76568604 C-241.48510342 252.76771097 -246.94253263 252.06482366 -252.9914856 247.01525879 C-256.83373373 243.04651168 -257.3688714 239.31795822 -257.3125 234.0625 C-257.30734375 233.31178223 -257.3021875 232.56106445 -257.296875 231.78759766 C-256.96089898 225.29626105 -254.72005865 221.79966547 -249.92578125 217.36328125 C-249.10464844 216.68652344 -248.28351563 216.00976562 -247.4375 215.3125 C-246.79167969 214.72855469 -246.14585937 214.14460937 -245.48046875 213.54296875 C-244.22720046 212.41634652 -242.95561002 211.30982643 -241.66796875 210.22265625 C-238.86207819 207.8197132 -236.15131344 205.31804502 -233.4375 202.8125 C-229.52821943 199.21179907 -225.57882109 195.66831161 -221.5625 192.1875 C-218.81926582 189.76699925 -216.12865432 187.29049358 -213.4375 184.8125 C-209.52768405 181.21237244 -205.57883532 177.66832395 -201.5625 174.1875 C-198.81926582 171.76699925 -196.12865432 169.29049358 -193.4375 166.8125 C-189.52768405 163.21237244 -185.57883532 159.66832395 -181.5625 156.1875 C-178.81926582 153.76699925 -176.12865432 151.29049358 -173.4375 148.8125 C-169.52768405 145.21237244 -165.57883532 141.66832395 -161.5625 138.1875 C-158.81926506 135.76699858 -156.12868757 133.29045822 -153.4375 130.8125 C-149.47890277 127.1683306 -145.48573168 123.57336221 -141.421875 120.046875 C-137.38375309 116.51749286 -133.41835319 112.90615774 -129.4375 109.3125 C-127.77109149 107.81221321 -126.10442647 106.31221128 -124.4375 104.8125 C-123.6125 104.07 -122.7875 103.3275 -121.9375 102.5625 C-34.4375 23.8125 -34.4375 23.8125 -31.9375 21.56640625 C-30.26564297 20.05912264 -28.59898898 18.54604852 -26.9375 17.02734375 C-8.29408003 0.04435337 -8.29408003 0.04435337 0 0 Z M-1.4375 44.3125 C-1.85 44.69994385 -2.2625 45.0873877 -2.6875 45.48657227 C-16.51134145 58.45992347 -16.51134145 58.45992347 -22.41796875 63.54296875 C-25.13236193 65.9213442 -27.78322387 68.36758905 -30.4375 70.8125 C-34.34724355 74.41270455 -38.29616671 77.95667782 -42.3125 81.4375 C-45.05573418 83.85800075 -47.74634568 86.33450642 -50.4375 88.8125 C-54.34731595 92.41262756 -58.29616468 95.95667605 -62.3125 99.4375 C-65.05573418 101.85800075 -67.74634568 104.33450642 -70.4375 106.8125 C-74.34731595 110.41262756 -78.29616468 113.95667605 -82.3125 117.4375 C-85.05573418 119.85800075 -87.74634568 122.33450642 -90.4375 124.8125 C-94.34731595 128.41262756 -98.29616468 131.95667605 -102.3125 135.4375 C-105.05573494 137.85800142 -107.74631243 140.33454178 -110.4375 142.8125 C-114.39609723 146.4566694 -118.38926832 150.05163779 -122.453125 153.578125 C-126.49124691 157.10750714 -130.45664681 160.71884226 -134.4375 164.3125 C-136.10390851 165.81278679 -137.77057353 167.31278872 -139.4375 168.8125 C-140.2625 169.555 -141.0875 170.2975 -141.9375 171.0625 C-169.4375 195.8125 -169.4375 195.8125 -171.921875 198.046875 C-173.64268562 199.59667339 -175.3613363 201.14887251 -177.078125 202.703125 C-184.36672705 209.29341787 -184.36672705 209.29341787 -188.0625 212.3125 C-189.238125 213.3025 -189.238125 213.3025 -190.4375 214.3125 C-190.4375 214.6425 -190.4375 214.9725 -190.4375 215.3125 C-181.17408712 216.76268424 -181.17408712 216.76268424 -172.43457031 214.14941406 C-168.54659976 211.10273544 -165.20408267 207.52955489 -161.88867188 203.88037109 C-160.10712183 201.95555373 -158.19270469 200.25088235 -156.1875 198.5625 C-153.23688235 196.01538562 -150.33051214 193.42497763 -147.4375 190.8125 C-143.82073655 187.54859152 -140.17360392 184.32459051 -136.5 181.125 C-133.2623667 178.2798071 -130.0706371 175.38396164 -126.87109375 172.49609375 C-124.76238854 170.60401315 -122.63830199 168.73344242 -120.5 166.875 C-117.27190488 164.06427475 -114.10011557 161.196701 -110.9375 158.3125 C-107.15087002 154.85921847 -103.3327368 151.45150949 -99.46484375 148.08984375 C-97.10260827 146.01890513 -94.76954147 143.91737152 -92.4375 141.8125 C-89.45687279 139.12266569 -86.46504767 136.44939636 -83.4375 133.8125 C-78.72048716 129.70168961 -74.08111111 125.50582155 -69.4375 121.3125 C-64.15764424 116.54463025 -58.86458194 111.79737782 -53.5 107.125 C-51.12785571 105.04038836 -48.78193935 102.92821356 -46.4375 100.8125 C-43.45687279 98.12266569 -40.46504767 95.44939636 -37.4375 92.8125 C-34.45521722 90.21348248 -31.50243057 87.58435338 -28.5625 84.9375 C-27.72332031 84.18339844 -26.88414062 83.42929688 -26.01953125 82.65234375 C-24.27686675 81.07313644 -22.54528077 79.48162918 -20.82421875 77.87890625 C-9.27335066 67.20443179 -9.27335066 67.20443179 -0.5625 66.6875 C11.58249398 67.22794473 19.60295026 77.83480283 27.90039062 85.74316406 C30.42816903 88.12985025 33.04206572 90.40770084 35.67578125 92.67578125 C37.99908787 94.69123772 40.27998465 96.75098462 42.5625 98.8125 C45.54312721 101.50233431 48.53495233 104.17560364 51.5625 106.8125 C55.45901647 110.20624015 59.29314945 113.66680003 63.12890625 117.12890625 C65.23761146 119.02098685 67.36169801 120.89155758 69.5 122.75 C73.69414365 126.40187053 77.79344292 130.15516184 81.90234375 133.90234375 C84.75005795 136.48243136 87.63494018 139.01451856 90.53515625 141.53515625 C92.89739173 143.60609487 95.23045853 145.70762848 97.5625 147.8125 C100.54312721 150.50233431 103.53495233 153.17560364 106.5625 155.8125 C112.15229989 160.68393203 117.63784898 165.6714515 123.140625 170.640625 C127.56371401 174.62954577 132.00865005 178.58817907 136.5 182.5 C139.73625077 185.34397795 142.92658668 188.23862701 146.125 191.125 C148.89262541 193.60876639 151.69158559 196.05418867 154.49609375 198.49609375 C156.89146392 200.60166488 159.25855142 202.73698688 161.625 204.875 C162.47964844 205.6278125 163.33429688 206.380625 164.21484375 207.15625 C166.5625 209.3125 166.5625 209.3125 168.19140625 211.21875 C171.07657787 214.41277811 173.28117294 215.43798276 177.55078125 215.67578125 C181.56885878 215.74653145 185.55330909 215.57239953 189.5625 215.3125 C187.241414 212.30934048 184.97183389 209.62470514 182.0625 207.1875 C178.49199958 204.13658732 175.01371006 200.99698638 171.5625 197.8125 C168.26256344 194.77324616 164.95299633 191.75093015 161.5625 188.8125 C157.6316075 185.4057265 153.81053427 181.88247215 149.984375 178.359375 C147.20755943 175.80694857 144.41269283 173.28266712 141.5625 170.8125 C137.6316075 167.4057265 133.81053427 163.88247215 129.984375 160.359375 C127.20755943 157.80694857 124.41269283 155.28266712 121.5625 152.8125 C117.68432987 149.44927362 113.90722189 145.97914329 110.12939453 142.50439453 C105.30665109 138.07026372 100.4390888 133.6873176 95.5625 129.3125 C93.89557353 127.81278872 92.22890851 126.31278679 90.5625 124.8125 C89.7375 124.07 88.9125 123.3275 88.0625 122.5625 C30.5625 70.8125 30.5625 70.8125 28.0546875 68.5546875 C26.41510121 67.07957382 24.77450345 65.60558348 23.1328125 64.1328125 C22.32585937 63.40835938 21.51890625 62.68390625 20.6875 61.9375 C19.87152344 61.20660156 19.05554688 60.47570312 18.21484375 59.72265625 C16.27075327 57.95608213 14.34976821 56.17541638 12.44140625 54.37109375 C11.9107959 53.87335449 11.38018555 53.37561523 10.83349609 52.86279297 C9.80350978 51.89505683 8.7787746 50.92169074 7.76025391 49.94189453 C4.87250217 47.23873896 2.3389331 45.51628104 -1.4375 44.3125 Z M-21 127.375 C-22.10352381 128.39652823 -23.20769035 129.41736257 -24.3125 130.4375 C-24.85132813 130.93507812 -25.39015625 131.43265625 -25.9453125 131.9453125 C-27.77147174 133.61849505 -29.62836807 135.25291899 -31.5 136.875 C-34.68994609 139.6405042 -37.81842989 142.46725772 -40.9375 145.3125 C-44.72412998 148.76578153 -48.5422632 152.17349051 -52.41015625 155.53515625 C-54.77239173 157.60609487 -57.10545853 159.70762848 -59.4375 161.8125 C-62.41812721 164.50233431 -65.40995233 167.17560364 -68.4375 169.8125 C-73.15451284 173.92331039 -77.79388889 178.11917845 -82.4375 182.3125 C-87.71735576 187.08036975 -93.01041806 191.82762218 -98.375 196.5 C-100.74714429 198.58461164 -103.09306065 200.69678644 -105.4375 202.8125 C-108.41812721 205.50233431 -111.40995233 208.17560364 -114.4375 210.8125 C-119.15451284 214.92331039 -123.79388889 219.11917845 -128.4375 223.3125 C-133.23355846 227.64348612 -138.03092233 231.97268828 -142.875 236.25 C-143.49246094 236.79527344 -144.10992187 237.34054688 -144.74609375 237.90234375 C-146.4375 239.3125 -146.4375 239.3125 -149.4375 241.3125 C-149.73155657 244.39477194 -149.82831795 247.27600737 -149.79826355 250.36062622 C-149.80082682 251.30971922 -149.8033901 252.25881222 -149.80603105 253.23666561 C-149.81099698 256.43675512 -149.79442972 259.63637929 -149.77807617 262.83642578 C-149.77723051 265.12240589 -149.77770385 267.40838682 -149.77940369 269.69436646 C-149.78026743 275.91726082 -149.76258041 282.13998309 -149.74168181 288.36283731 C-149.72297803 294.85979251 -149.72116956 301.35675128 -149.71760559 307.85372925 C-149.70932885 318.76400841 -149.69056695 329.67422374 -149.66381836 340.58447266 C-149.63629255 351.82340177 -149.61508614 363.0623136 -149.60229492 374.30126953 C-149.60149093 375.00079424 -149.60068694 375.70031894 -149.59985858 376.42104137 C-149.59292029 382.50564468 -149.58646177 388.59024849 -149.58005047 394.67485237 C-149.5518079 420.88746121 -149.49205065 447.09990215 -149.4375 473.3125 C-104.8875 473.3125 -60.3375 473.3125 -14.4375 473.3125 C-14.4375 459.1225 -14.4375 444.9325 -14.4375 430.3125 C-19.01177092 428.78774303 -22.73034832 427.8773582 -27.4375 427.3125 C-27.89600342 428.41239258 -28.35450684 429.51228516 -28.8269043 430.64550781 C-30.53672509 434.73666962 -32.26496089 438.81983615 -33.9987793 442.90087891 C-34.74566666 444.66601353 -35.48758781 446.4332583 -36.22436523 448.20263672 C-37.28621809 450.75022435 -38.36588493 453.28961039 -39.44921875 455.828125 C-39.77339279 456.61680969 -40.09756683 457.40549438 -40.43156433 458.21807861 C-42.72018404 463.51459749 -45.13501555 466.66125778 -50.4375 469.3125 C-55.04950214 469.87516426 -58.56484709 469.71650598 -62.8125 467.75 C-66.04930056 464.74439948 -67.23297215 462.56377477 -68.4375 458.3125 C-68.06757683 452.39565999 -66.6743269 447.78365941 -64.2421875 442.41796875 C-63.93048615 441.70393387 -63.61878479 440.98989899 -63.29763794 440.25422668 C-62.3124072 437.99834574 -61.31410143 435.74865556 -60.3125 433.5 C-58.98629944 430.51905277 -57.67311037 427.5328448 -56.3671875 424.54296875 C-56.05893036 423.86171432 -55.75067322 423.1804599 -55.43307495 422.4785614 C-53.61311103 418.51111554 -53.61311103 418.51111554 -54.4375 414.3125 C-56.6875 412.39583333 -56.6875 412.39583333 -59.4375 411.3125 C-62.66560125 412.48341448 -64.6229935 414.32966576 -66.9375 416.8125 C-69.94495372 420.03867762 -72.35370479 422.01677989 -76.8046875 422.6484375 C-82.52272757 422.73750354 -85.99987048 422.30636657 -90.4375 418.3125 C-92.19046688 415.43908006 -92.73256805 413.2277443 -92.75 409.875 C-92.76675781 409.13378906 -92.78351563 408.39257812 -92.80078125 407.62890625 C-91.98023073 402.39679378 -88.41892454 399.0625789 -84.75 395.5 C-83.94175781 394.70980469 -83.13351563 393.91960937 -82.30078125 393.10546875 C-81.68589844 392.51378906 -81.07101563 391.92210937 -80.4375 391.3125 C-82.0875 388.3425 -83.7375 385.3725 -85.4375 382.3125 C-94.21704332 386.54733854 -102.73533579 391.18554214 -111.23828125 395.9453125 C-111.94686279 396.34073242 -112.65544434 396.73615234 -113.38549805 397.14355469 C-114.72184743 397.9048207 -116.04714842 398.68592806 -117.35864258 399.48925781 C-122.5733976 402.65689534 -126.46940832 403.29571115 -132.4375 402.3125 C-136.56724965 400.24762518 -138.73277061 398.5666445 -140.4375 394.3125 C-140.7734375 391.9453125 -140.7734375 391.9453125 -140.8125 389.4375 C-140.84085938 388.61507813 -140.86921875 387.79265625 -140.8984375 386.9453125 C-140.25156391 383.25045828 -139.11018222 380.88528369 -136.4375 378.3125 C-132.46585077 375.71943976 -128.28673578 373.58719164 -124.0625 371.4375 C-121.71285858 370.20963961 -119.36389478 368.98048161 -117.015625 367.75 C-115.88447266 367.1621875 -114.75332031 366.574375 -113.58789062 365.96875 C-109.61112011 363.87804858 -105.69909495 361.69052205 -101.8125 359.4375 C-100.74773437 358.82132813 -99.68296875 358.20515625 -98.5859375 357.5703125 C-97.87695312 357.15523437 -97.16796875 356.74015625 -96.4375 356.3125 C-97.0975 352.6825 -97.7575 349.0525 -98.4375 345.3125 C-99.88382813 345.29832031 -101.33015625 345.28414062 -102.8203125 345.26953125 C-104.73440637 345.22261718 -106.64846789 345.17436988 -108.5625 345.125 C-109.98949219 345.11629883 -109.98949219 345.11629883 -111.4453125 345.10742188 C-116.01778934 344.96453197 -119.40570368 344.85567059 -123.03125 341.87890625 C-126.33620397 338.35397969 -127.30329099 336.76195729 -127.75 331.9375 C-127.29726947 326.68582582 -125.98288457 323.64514967 -121.96875 320.18359375 C-117.26733053 317.69246551 -113.30557515 317.64477365 -108.0625 317.5625 C-107.13566406 317.53285156 -106.20882812 317.50320313 -105.25390625 317.47265625 C-102.98222996 317.40239822 -100.70986259 317.35513344 -98.4375 317.3125 C-97.7775 313.6825 -97.1175 310.0525 -96.4375 306.3125 C-97.14656494 305.93552979 -97.85562988 305.55855957 -98.58618164 305.17016602 C-122.37146297 292.50332264 -122.37146297 292.50332264 -131.375 287.25 C-133.05916016 286.27353516 -133.05916016 286.27353516 -134.77734375 285.27734375 C-138.37201832 282.62224638 -140.12820964 280.25314542 -140.8359375 275.8125 C-140.75294048 266.95948453 -140.75294048 266.95948453 -137.4375 263.3125 C-133.71661329 260.80306478 -130.24977533 259.62291674 -125.71484375 259.859375 C-120.50692116 260.89559973 -116.01439621 263.72747912 -111.4375 266.3125 C-110.53257812 266.82200195 -109.62765625 267.33150391 -108.6953125 267.85644531 C-104.54782937 270.1954019 -100.40173143 272.53616189 -96.27124023 274.9050293 C-94.82019897 275.73514526 -94.82019897 275.73514526 -93.33984375 276.58203125 C-92.46835693 277.08323486 -91.59687012 277.58443848 -90.69897461 278.10083008 C-88.37859374 279.42618888 -88.37859374 279.42618888 -85.4375 280.3125 C-83.7875 277.6725 -82.1375 275.0325 -80.4375 272.3125 C-81.05238281 271.73242188 -81.66726562 271.15234375 -82.30078125 270.5546875 C-92.43225178 260.76254852 -92.43225178 260.76254852 -92.8125 253.3125 C-92.6316025 249.37044189 -91.72733886 246.59460236 -89.4375 243.3125 C-85.41572779 240.43980557 -81.59625861 239.66468826 -76.7421875 239.828125 C-71.2498353 240.98244987 -67.36917935 245.25403095 -63.6875 249.25 C-61.7004951 251.53774154 -61.7004951 251.53774154 -59.4375 251.3125 C-57.01661171 250.10205585 -54.71816147 248.76958927 -52.4375 247.3125 C-55.15943614 238.56613878 -58.77104603 230.21103588 -62.39990234 221.81176758 C-69.68369096 204.91260722 -69.68369096 204.91260722 -67.3125 198.0625 C-64.44142635 193.85159198 -62.068166 191.77400924 -57.125 190.375 C-52.63558323 190.29890819 -49.34933198 191.09790243 -45.4375 193.3125 C-43.71544042 195.62426304 -42.72572053 197.29445091 -41.625 199.875 C-41.31369141 200.54595703 -41.00238281 201.21691406 -40.68164062 201.90820312 C-39.56202981 204.36099214 -38.4974823 206.83334604 -37.4375 209.3125 C-36.96779785 210.40030762 -36.4980957 211.48811523 -36.01416016 212.60888672 C-32.76527514 220.15357746 -29.58374975 227.72448591 -26.4375 235.3125 C-20.4975 234.3225 -20.4975 234.3225 -14.4375 233.3125 C-14.4375 196.6825 -14.4375 160.0525 -14.4375 122.3125 C-16.76160192 122.3125 -19.29671103 125.78500614 -21 127.375 Z M13.5625 122.3125 C13.5625 151.6825 13.5625 181.0525 13.5625 211.3125 C16.8625 212.9625 20.1625 214.6125 23.5625 216.3125 C26.95300904 220.83317871 27.2083843 225.81760123 27.5625 231.3125 C28.3875 230.673125 29.2125 230.03375 30.0625 229.375 C33.75186651 226.94435853 37.15166676 226.10774178 41.5625 226.3125 C45.81377477 227.51702785 47.99439948 228.70069944 51 231.9375 C52.944928 236.13854449 53.59410863 239.76128545 52.5625 244.3125 C50.31191911 248.7554571 47.3296624 251.4965303 43.578125 254.75390625 C31.9563747 264.19591549 31.9563747 264.19591549 26.18359375 277.359375 C26.02879677 282.4587446 26.60453248 287.30978071 27.5625 292.3125 C29.2504962 293.29977037 29.2504962 293.29977037 31.5625 293.3125 C33.68771756 291.61135995 35.42969929 289.9789097 37.28125 288.01171875 C37.82100464 287.46014603 38.36075928 286.9085733 38.91687012 286.34028625 C40.64428342 284.57158574 42.35403554 282.78699523 44.0625 281 C45.77339188 279.22633854 47.48780822 277.45636614 49.20812988 275.69184875 C50.27826597 274.59259121 51.34258162 273.48762964 52.40026855 272.37638855 C55.67607716 268.99107717 58.21359451 266.64584302 62.9296875 265.9765625 C68.64772757 265.88749646 72.12487048 266.31863343 76.5625 270.3125 C78.31546688 273.18591994 78.85756805 275.3972557 78.875 278.75 C78.89175781 279.49121094 78.90851563 280.23242188 78.92578125 280.99609375 C78.05139239 286.57149801 73.91960637 290.16350364 69.984375 293.875 C68.89526872 294.92910445 67.80674383 295.98380987 66.71875 297.0390625 C65.01081503 298.68487282 63.29872329 300.32554061 61.57617188 301.95605469 C59.90706813 303.54065886 58.25731613 305.14343847 56.609375 306.75 C56.08865417 307.233479 55.56793335 307.71695801 55.03143311 308.21508789 C53.40522029 309.75030157 53.40522029 309.75030157 51.5625 312.3125 C51.60338257 315.09820173 51.60338257 315.09820173 52.5625 317.3125 C59.37619335 318.85733518 65.85621573 319.70043356 72.5625 317.3125 C80.5487071 311.65348184 86.98166057 304.05373818 93.31445312 296.65087891 C96.0494234 293.80601082 98.04472779 292.52789342 101.9296875 291.9765625 C107.64772757 291.88749646 111.12487048 292.31863343 115.5625 296.3125 C118.29742959 300.75440288 118.22992768 305.24470613 117.5625 310.3125 C116.48120041 312.96873594 115.21442806 314.93785342 113.5625 317.3125 C114.77486328 317.44205078 114.77486328 317.44205078 116.01171875 317.57421875 C125.83046806 318.86522439 125.83046806 318.86522439 128.75 321.75 C131.79536249 326.05551249 132.09788302 330.17282303 131.5625 335.3125 C130.34121658 338.71923797 129.23701735 340.70121865 126.5625 343.125 C122.020987 344.92268223 117.40899357 345.06635584 112.5625 345.3125 C113.5215625 346.4571875 113.5215625 346.4571875 114.5 347.625 C118.02996027 352.2246452 118.22345292 356.70876875 117.5625 362.3125 C115.73749123 366.41876973 113.84318781 368.48758229 109.8125 370.3125 C105.22119529 371.72390108 101.8847744 371.32019846 97.5625 369.3125 C93.10073548 366.02681742 89.32221001 362.1407566 85.765625 357.91015625 C78.01567434 348.44202609 78.01567434 348.44202609 67.01171875 344.2109375 C62.11477134 344.07290447 57.3953708 344.54783688 52.5625 345.3125 C51.58031223 347.5130946 51.58031223 347.5130946 51.5625 350.3125 C53.26640561 352.53115734 54.83955593 354.243284 56.86328125 356.12890625 C57.41485397 356.66724594 57.9664267 357.20558563 58.53471375 357.76023865 C60.30121077 359.47990305 62.08670942 361.17803457 63.875 362.875 C65.64902605 364.57878665 67.41867512 366.28679824 69.18315125 368.00047302 C70.28199389 369.06550482 71.38694009 370.1242843 72.49861145 371.17591858 C75.79497501 374.34452914 78.18262073 376.88303953 78.8984375 381.4609375 C78.99368066 386.88979786 78.41189233 390.16700057 74.5625 394.3125 C70.25880621 396.8781636 66.59716474 397.97664015 61.57250977 397.06518555 C53.64036771 394.0948474 46.87742905 384.7448666 41.0625 378.875 C40.1446875 377.95267578 39.226875 377.03035156 38.28125 376.08007812 C36.03934945 373.82650101 33.799834 371.57060925 31.5625 369.3125 C29.5825 370.3025 29.5825 370.3025 27.5625 371.3125 C26.01806284 378.12443779 25.17191925 384.60850357 27.5625 391.3125 C33.2246309 399.26209699 40.82243554 405.65980785 48.22412109 411.95092773 C51.77491336 415.53693876 52.46455167 418.28404252 52.9375 423.25 C52.80728114 427.56349975 51.4477357 430.04762803 48.5625 433.3125 C44.17382572 436.23828285 40.78858581 436.94323449 35.5625 436.3125 C32.77141074 435.17938643 30.16456147 433.82642667 27.5625 432.3125 C27.53671875 432.89257812 27.5109375 433.47265625 27.484375 434.0703125 C27.08981647 439.50445954 26.40370294 443.18320684 22.5625 447.3125 C18.1075 449.2925 18.1075 449.2925 13.5625 451.3125 C13.5625 458.5725 13.5625 465.8325 13.5625 473.3125 C58.1125 473.3125 102.6625 473.3125 148.5625 473.3125 C148.79551016 432.24908494 148.79551016 432.24908494 148.953125 391.18554688 C148.96878778 385.64900525 148.98495158 380.11246542 149.00195312 374.57592773 C149.00406312 373.88202106 149.00617311 373.18811438 149.00834703 372.47318023 C149.04313369 361.27318386 149.10619932 350.07351634 149.17972237 338.87371492 C149.25455766 327.3780675 149.29837616 315.88265127 149.31520796 304.38676506 C149.32564389 297.93020351 149.35019455 291.47438731 149.40834045 285.0180645 C149.46262255 278.94156147 149.47939612 272.86611111 149.46736145 266.78938866 C149.46956319 264.55887889 149.4854887 262.3283341 149.5161438 260.09803391 C149.55596733 257.05136263 149.54638069 254.00866235 149.52453613 250.9618988 C149.55949023 249.63843363 149.55949023 249.63843363 149.59515047 248.28823179 C149.52145755 244.48484285 149.32217164 242.20898144 146.81163692 239.24632275 C144.79819171 237.47244153 142.73761606 235.88120581 140.5625 234.3125 C138.89197538 232.81679773 137.22469168 231.31745734 135.5625 229.8125 C132.60380249 227.14201656 129.63323528 224.48951942 126.625 221.875 C122.43085635 218.22312947 118.33155708 214.46983816 114.22265625 210.72265625 C111.37494205 208.14256864 108.49005982 205.61048144 105.58984375 203.08984375 C103.22760827 201.01890513 100.89454147 198.91737152 98.5625 196.8125 C95.58187279 194.12266569 92.59004767 191.44939636 89.5625 188.8125 C83.97270011 183.94106797 78.48715102 178.9535485 72.984375 173.984375 C68.56128599 169.99545423 64.11634995 166.03682093 59.625 162.125 C56.38874923 159.28102205 53.19841332 156.38637299 50 153.5 C47.86832519 151.58695851 45.7223089 149.69362388 43.5625 147.8125 C40.58021722 145.21348248 37.62743057 142.58435338 34.6875 139.9375 C33.43066406 138.80634766 33.43066406 138.80634766 32.1484375 137.65234375 C30.39746379 136.06800349 28.65283481 134.47662771 26.9140625 132.87890625 C26.05554688 132.09386719 25.19703125 131.30882812 24.3125 130.5 C23.54421875 129.79230469 22.7759375 129.08460938 21.984375 128.35546875 C19.34333527 126.12762395 16.43739732 124.22909821 13.5625 122.3125 Z M-51.125 280.87109375 C-64.27307889 294.7520892 -71.72370238 312.37598145 -71.875 331.5 C-71.29506567 351.12111138 -64.02275787 368.20741423 -50.75 382.5625 C-40.64742855 392.04368312 -27.99272336 398.60145533 -14.4375 401.3125 C-14.4375 355.4425 -14.4375 309.5725 -14.4375 262.3125 C-27.68934496 262.3125 -41.82055527 272.058711 -51.125 280.87109375 Z M14.5625 318.3125 C14.5625 327.2225 14.5625 336.1325 14.5625 345.3125 C21.0857991 342.72942776 21.0857991 342.72942776 25.5625 338.3125 C26.80449848 334.58650457 27.09758555 331.18270783 26.5625 327.3125 C24.52624303 323.45815644 22.39920083 320.47064421 18.5625 318.3125 C17.2425 318.3125 15.9225 318.3125 14.5625 318.3125 Z " fill="#00A3D7" transform="translate(256.4375,0.6875)"/>
</svg>
